<?xml version="1.0"?><svg version="1.1" id="Layer_1" xmlns="http://www.w3.org/2000/svg" x="0" y="0" viewBox="0 0 100 100" xml:space="preserve"><path d="M77.759 66.095H50.241v-16.92c0-5.853 4.745-10.598 10.598-10.598h6.321c5.853 0 10.598 4.745 10.598 10.598v16.92z" fill="#e0e0e0" stroke="#333" stroke-width="3.5" stroke-miterlimit="10"/><path d="M68.417 38.658a14.584 14.584 0 0 1 3.341 9.311v18.125h6V49.175c.001-5.427-4.081-9.894-9.341-10.517z" opacity=".2" stroke-width="3.5" stroke-linejoin="round" stroke="#000" stroke-miterlimit="10"/><circle cx="64" cy="31.698" r="10.632" fill="#f4e6c8" stroke="#333" stroke-width="3.5" stroke-miterlimit="10"/><path d="M71.731 24.415a27.151 27.151 0 0 1-1.555 6.921c-1.74 4.779-4.556 8.61-7.635 10.882.478.066.963.112 1.459.112 5.872 0 10.632-4.76 10.632-10.632 0-2.822-1.107-5.38-2.901-7.283z" opacity=".2" stroke-width="3.5" stroke-linejoin="round" stroke="#000" stroke-miterlimit="10"/><path d="M49.759 66.095H22.241v-16.92c0-5.853 4.745-10.598 10.598-10.598h6.321c5.853 0 10.598 4.745 10.598 10.598v16.92z" fill="#e0e0e0" stroke="#333" stroke-width="3.5" stroke-miterlimit="10"/><path d="M40.417 38.658a14.584 14.584 0 0 1 3.341 9.311v18.125h6V49.175c.001-5.427-4.081-9.894-9.341-10.517z" opacity=".2" stroke-width="3.5" stroke-linejoin="round" stroke="#000" stroke-miterlimit="10"/><circle cx="36" cy="31.698" r="10.632" fill="#f4e6c8" stroke="#333" stroke-width="3.5" stroke-miterlimit="10"/><path d="M43.731 24.415a27.151 27.151 0 0 1-1.555 6.921c-1.74 4.779-4.556 8.61-7.635 10.882.478.066.963.112 1.459.112 5.872 0 10.632-4.76 10.632-10.632 0-2.822-1.107-5.38-2.901-7.283z" opacity=".2" stroke-width="3.5" stroke-linejoin="round" stroke="#000" stroke-miterlimit="10"/><path d="M63.759 82.095H36.241v-16.92c0-5.853 4.745-10.598 10.598-10.598h6.321c5.853 0 10.598 4.745 10.598 10.598v16.92z" fill="#e0e0e0" stroke="#333" stroke-width="3.5" stroke-miterlimit="10"/><path d="M54.417 54.658a14.584 14.584 0 0 1 3.341 9.311v18.125h6V65.175c.001-5.427-4.081-9.894-9.341-10.517z" opacity=".2" stroke-width="3.5" stroke-linejoin="round" stroke="#000" stroke-miterlimit="10"/><circle cx="50" cy="47.698" r="10.632" fill="#f4e6c8" stroke="#333" stroke-width="3.5" stroke-miterlimit="10"/><path d="M57.731 40.415a27.151 27.151 0 0 1-1.555 6.921c-1.74 4.779-4.556 8.61-7.635 10.882.478.066.963.112 1.459.112 5.872 0 10.632-4.76 10.632-10.632 0-2.822-1.107-5.38-2.901-7.283z" opacity=".2" stroke-width="3.5" stroke-linejoin="round" stroke="#000" stroke-miterlimit="10"/><path d="M35.759 82.095H8.241v-16.92c0-5.853 4.745-10.598 10.598-10.598h6.321c5.853 0 10.598 4.745 10.598 10.598v16.92z" fill="#e0e0e0" stroke="#333" stroke-width="3.5" stroke-miterlimit="10"/><path d="M26.417 54.658a14.584 14.584 0 0 1 3.341 9.311v18.125h6V65.175c.001-5.427-4.081-9.894-9.341-10.517z" opacity=".2" stroke-width="3.5" stroke-linejoin="round" stroke="#000" stroke-miterlimit="10"/><circle cx="22" cy="47.698" r="10.632" fill="#f4e6c8" stroke="#333" stroke-width="3.5" stroke-miterlimit="10"/><path d="M29.731 40.415a27.151 27.151 0 0 1-1.555 6.921c-1.74 4.779-4.556 8.61-7.635 10.882.478.066.963.112 1.459.112 5.872 0 10.632-4.76 10.632-10.632 0-2.822-1.107-5.38-2.901-7.283z" opacity=".2" stroke-width="3.5" stroke-linejoin="round" stroke="#000" stroke-miterlimit="10"/><path d="M91.759 82.095H64.241v-16.92c0-5.853 4.745-10.598 10.598-10.598h6.321c5.853 0 10.598 4.745 10.598 10.598v16.92z" fill="#e0e0e0" stroke="#333" stroke-width="3.5" stroke-miterlimit="10"/><path d="M82.417 54.658a14.584 14.584 0 0 1 3.341 9.311v18.125h6V65.175c.001-5.427-4.081-9.894-9.341-10.517z" opacity=".2" stroke-width="3.5" stroke-linejoin="round" stroke="#000" stroke-miterlimit="10"/><circle cx="78" cy="47.698" r="10.632" fill="#f4e6c8" stroke="#333" stroke-width="3.5" stroke-miterlimit="10"/><path d="M85.731 40.415a27.151 27.151 0 0 1-1.555 6.921c-1.74 4.779-4.556 8.61-7.635 10.882.478.066.963.112 1.459.112 5.872 0 10.632-4.76 10.632-10.632 0-2.822-1.107-5.38-2.901-7.283z" opacity=".2" stroke-width="3.5" stroke-linejoin="round" stroke="#000" stroke-miterlimit="10"/><metadata xmlns:d="https://loading.io/stock/">
<d:name>crowdsourcing</d:name>
<d:tags>crowdsourcing,collaboration,cowork,crowd,participate,grassroot,together,people,citizen</d:tags>
<d:license>by</d:license>
<d:slug>gnkpm1</d:slug>
</metadata></svg>