<?xml version="1.0"?><svg xmlns="http://www.w3.org/2000/svg" viewBox="0 0 100 100"><g><path d="M70.671 85.365H18.038a3.171 3.171 0 0 1-3.171-3.171V13.171A3.171 3.171 0 0 1 18.038 10h52.633a3.171 3.171 0 0 1 3.171 3.171v69.022a3.17 3.17 0 0 1-3.171 3.172z" fill="#e0e0e0"/><path fill="none" stroke="#323232" stroke-width="3" stroke-linecap="round" stroke-linejoin="round" stroke-miterlimit="10" d="M27.492 22.493h32.313"/><path fill="none" stroke="#323232" stroke-width="3" stroke-linecap="round" stroke-linejoin="round" stroke-miterlimit="10" d="M27.492 32.028h32.313"/><path fill="none" stroke="#323232" stroke-width="3" stroke-linecap="round" stroke-linejoin="round" stroke-miterlimit="10" d="M27.492 41.563h32.313"/><path fill="none" stroke="#323232" stroke-width="3" stroke-linecap="round" stroke-linejoin="round" stroke-miterlimit="10" d="M27.492 51.098h16.421"/><path fill="none" stroke="#323232" stroke-width="3" stroke-linecap="round" stroke-linejoin="round" stroke-miterlimit="10" d="M27.492 72.287h16.421"/></g><path d="M61.176 76.607l-4.59 11.871a.39.39 0 0 0 .522.498l4.32-1.911a.39.39 0 0 1 .515.199l1.911 4.32a.39.39 0 0 0 .721-.017l4.59-11.871a4.283 4.283 0 0 0-3.051-5.722 4.282 4.282 0 0 0-4.938 2.633z" fill="#e15c64"/><path d="M79.048 76.607l4.59 11.871a.39.39 0 0 1-.522.498l-4.32-1.911a.39.39 0 0 0-.515.199l-1.911 4.32a.39.39 0 0 1-.721-.017l-4.59-11.871a4.283 4.283 0 0 1 3.051-5.722 4.281 4.281 0 0 1 4.938 2.633z" fill="#e15c64"/><g><path d="M71.224 53.11l1.227 1.17c.358.341.881.445 1.342.267l1.582-.611a1.277 1.277 0 0 1 1.629.675l.686 1.55c.2.452.643.748 1.138.76l1.695.041c.682.016 1.23.565 1.247 1.247l.041 1.695c.012.494.308.937.76 1.138l1.55.686c.623.276.92.993.675 1.629l-.611 1.582c-.178.461-.074.984.267 1.342l1.17 1.227c.47.494.47 1.269 0 1.763l-1.17 1.227a1.279 1.279 0 0 0-.267 1.342l.611 1.582a1.277 1.277 0 0 1-.675 1.629l-1.55.686c-.452.2-.748.643-.76 1.138l-.041 1.695a1.278 1.278 0 0 1-1.247 1.247l-1.695.041a1.28 1.28 0 0 0-1.138.76l-.686 1.55a1.28 1.28 0 0 1-1.629.675l-1.582-.611a1.279 1.279 0 0 0-1.342.267l-1.227 1.17c-.494.47-1.269.47-1.763 0l-1.227-1.17a1.279 1.279 0 0 0-1.342-.267l-1.582.611a1.277 1.277 0 0 1-1.629-.675l-.686-1.55a1.278 1.278 0 0 0-1.138-.76l-1.695-.041a1.278 1.278 0 0 1-1.247-1.247l-.041-1.695a1.28 1.28 0 0 0-.76-1.138l-1.55-.686a1.28 1.28 0 0 1-.675-1.629l.611-1.582a1.279 1.279 0 0 0-.267-1.342l-1.17-1.227a1.278 1.278 0 0 1 0-1.763l1.17-1.227c.341-.358.445-.881.267-1.342l-.611-1.582a1.277 1.277 0 0 1 .675-1.629l1.55-.686c.452-.2.748-.643.76-1.138l.041-1.695a1.278 1.278 0 0 1 1.247-1.247l1.695-.041a1.28 1.28 0 0 0 1.138-.76l.686-1.55a1.28 1.28 0 0 1 1.629-.675l1.582.611c.461.178.984.074 1.342-.267l1.227-1.17a1.278 1.278 0 0 1 1.763 0z" fill="#f47e5f"/><circle cx="70.343" cy="68.389" r="10.362" fill="#f7b26a"/><path d="M70.778 62.241l1.586 3.214a.486.486 0 0 0 .366.266l3.547.515a.486.486 0 0 1 .269.828l-2.567 2.502a.487.487 0 0 0-.14.43l.606 3.533a.486.486 0 0 1-.705.512l-3.173-1.668a.488.488 0 0 0-.452 0l-3.173 1.668a.486.486 0 0 1-.705-.512l.606-3.533a.485.485 0 0 0-.14-.43l-2.567-2.502a.486.486 0 0 1 .269-.828l3.547-.515a.486.486 0 0 0 .366-.266l1.586-3.214a.488.488 0 0 1 .874 0z" fill="#f5e169"/></g><metadata xmlns:d="https://loading.io/stock/">
<d:name>certificate</d:name>
<d:tags>certificate,contract,deal,sales,promise,sign,debt,bonds,stock option,fund,insurance,futures,interest</d:tags>
<d:license>by</d:license>
<d:slug>i3knsd</d:slug>
</metadata></svg>