<svg width="120" height="120" viewBox="0 0 120 120" fill="none" xmlns="http://www.w3.org/2000/svg">
<circle cx="60" cy="60" r="60" fill="#EFE8FF"/>
<g filter="url(#filter0_d)">
<path d="M42.0175 62.605L31.875 75L41.25 76.875L45 88.125L54.86 72.48" fill="#BAA9FF"/>
<path d="M77.9831 62.605L88.1256 75L78.7506 76.875L75.0006 88.125L65.1406 72.48" fill="#BAA9FF"/>
<path d="M60 73.125C71.3909 73.125 80.625 63.8909 80.625 52.5C80.625 41.1091 71.3909 31.875 60 31.875C48.6091 31.875 39.375 41.1091 39.375 52.5C39.375 63.8909 48.6091 73.125 60 73.125Z" fill="#7554F6"/>
<path d="M61.3272 40.73L64.4472 46.875H69.7647C70.0574 46.8679 70.3455 46.9492 70.5912 47.1084C70.837 47.2676 71.029 47.4972 71.1422 47.7673C71.2553 48.0374 71.2844 48.3353 71.2255 48.6221C71.1666 48.909 71.0226 49.1714 70.8122 49.375L65.9297 54.17L68.6347 60.3825C68.7539 60.6671 68.7808 60.9819 68.7115 61.2825C68.6421 61.5831 68.4802 61.8543 68.2484 62.0579C68.0166 62.2615 67.7267 62.3872 67.4197 62.4172C67.1127 62.4472 66.804 62.3799 66.5372 62.225L59.9997 58.5475L53.4622 62.225C53.1954 62.3799 52.8867 62.4472 52.5796 62.4172C52.2726 62.3872 51.9827 62.2615 51.7509 62.0579C51.5192 61.8543 51.3572 61.5831 51.2879 61.2825C51.2186 60.9819 51.2454 60.6671 51.3647 60.3825L54.0697 54.17L49.1872 49.365C48.9768 49.1614 48.8327 48.899 48.7739 48.6121C48.715 48.3253 48.744 48.0274 48.8572 47.7573C48.9703 47.4872 49.1623 47.2576 49.4081 47.0984C49.6539 46.9392 49.9419 46.8579 50.2347 46.865H55.5522L58.6747 40.73C58.8021 40.4888 58.993 40.2869 59.2267 40.146C59.4604 40.0052 59.7281 39.9308 60.0009 39.9308C60.2738 39.9308 60.5415 40.0052 60.7751 40.146C61.0088 40.2869 61.1997 40.4888 61.3272 40.73Z" fill="white"/>
</g>
<defs>
<filter id="filter0_d" x="15" y="19" width="90" height="90" filterUnits="userSpaceOnUse" color-interpolation-filters="sRGB">
<feFlood flood-opacity="0" result="BackgroundImageFix"/>
<feColorMatrix in="SourceAlpha" type="matrix" values="0 0 0 0 0 0 0 0 0 0 0 0 0 0 0 0 0 0 127 0"/>
<feOffset dy="4"/>
<feGaussianBlur stdDeviation="7.5"/>
<feColorMatrix type="matrix" values="0 0 0 0 0.458824 0 0 0 0 0.329412 0 0 0 0 0.964706 0 0 0 0.35 0"/>
<feBlend mode="normal" in2="BackgroundImageFix" result="effect1_dropShadow"/>
<feBlend mode="normal" in="SourceGraphic" in2="effect1_dropShadow" result="shape"/>
</filter>
</defs>
</svg>
