<svg id="Capa_1" enable-background="new 0 0 512 512" height="512" viewBox="0 0 512 512" width="512" xmlns="http://www.w3.org/2000/svg"><g><path d="m512 256c0 141.385-114.615 256-256 256-15.704 0-31.077-1.414-46-4.122-1.492-.271-3.986-5.476-5.468-5.772-3.495-.699-6.965-1.469-10.408-2.308-1.717-.419-2.421 4.067-4.124 3.613-109.398-29.108-190-128.847-190-247.411 0-141.385 114.615-256 256-256s256 114.615 256 256z" fill="#ffc14f"/><path d="m477.135 242.088c0 110.257-89.381 199.638-199.638 199.638s-199.638-89.381-199.638-199.638 89.381-199.637 199.638-199.637 199.638 89.381 199.638 199.637z" fill="#ffcd71"/><path d="m210 280v227.878c-6.763-1.227-13.433-2.72-20-4.467v-223.411zm-138.344 109.278c-3.905-3.905-3.905-10.237 0-14.142l77.782-77.782c3.905-3.905 10.237-3.905 14.142 0 3.905 3.905 3.905 10.237 0 14.142l-77.782 77.782c-3.905 3.905-10.237 3.905-14.142 0z" fill="#1c314e"/><path d="m433.695 158.761c-36.319 36.319-95.203 36.319-131.522 0s-36.319-95.203 0-131.522 95.203-36.319 131.522 0 36.318 95.203 0 131.522z" fill="#254167"/><path d="m389.463 183.487c-30.352 7.191-63.615-1.051-87.291-24.726-36.319-36.318-36.319-95.203 0-131.522 23.675-23.675 56.939-31.917 87.291-24.726-16.209 3.84-31.587 12.082-44.231 24.726-36.319 36.319-36.319 95.203 0 131.522 12.644 12.643 28.022 20.885 44.231 24.726z" fill="#1c314e"/><path d="m332.199 67.426c0 6.204-5.03 11.234-11.234 11.234s-11.234-5.03-11.234-11.234 5.03-11.234 11.234-11.234c6.204-.001 11.234 5.029 11.234 11.234zm37.249-11.235c-6.204 0-11.234 5.03-11.234 11.234s5.03 11.234 11.234 11.234 11.234-5.03 11.234-11.234-5.029-11.234-11.234-11.234zm48.484 0c-6.204 0-11.234 5.03-11.234 11.234s5.03 11.234 11.234 11.234 11.234-5.03 11.234-11.234-5.029-11.234-11.234-11.234zm-71.39 39.017c-6.204 0-11.234 5.03-11.234 11.234s5.03 11.234 11.234 11.234 11.234-5.03 11.234-11.234-5.03-11.234-11.234-11.234zm48.484 0c-6.204 0-11.234 5.03-11.234 11.234s5.03 11.234 11.234 11.234 11.234-5.03 11.234-11.234-5.03-11.234-11.234-11.234zm48.483 0c-6.204 0-11.234 5.03-11.234 11.234s5.03 11.234 11.234 11.234 11.234-5.03 11.234-11.234-5.029-11.234-11.234-11.234zm-49.819-75.225c-6.204 0-11.234 5.03-11.234 11.234s5.03 11.234 11.234 11.234 11.234-5.03 11.234-11.234-5.029-11.234-11.234-11.234zm-24.242 115.377c-6.204 0-11.234 5.03-11.234 11.234s5.03 11.234 11.234 11.234 11.234-5.03 11.234-11.234-5.029-11.234-11.234-11.234zm48.484 0c-6.204 0-11.234 5.03-11.234 11.234s5.03 11.234 11.234 11.234 11.234-5.03 11.234-11.234-5.029-11.234-11.234-11.234z" fill="#1c314e"/><path d="m243.358 160.757 56.819 56.819c4.224 4.224 3.827 11.186-.852 14.902l-174.196 138.345c-3.98 3.161-9.697 2.834-13.29-.76l-20.969-20.968c-3.593-3.593-3.92-9.311-.76-13.29l138.345-174.196c3.716-4.678 10.678-5.076 14.903-.852z" fill="#2e5180"/><path d="m130.586 333.706 126.474-159.247 43.118 43.118c4.224 4.224 3.826 11.186-.852 14.902l-150.467 119.5c-5.175 4.11-12.611 3.685-17.284-.988-4.675-4.674-5.1-12.11-.989-17.285z" fill="#376099"/><path d="m280.549 199.363-19.361-19.361c-29.696-29.696-29.696-77.841 0-107.537l4.214-4.214c3.124-3.124 8.19-3.124 11.314 0l115.966 115.966c3.124 3.124 3.124 8.19 0 11.314l-3.833 3.833c-29.905 29.905-78.393 29.905-108.3-.001z" fill="#b4d2d7"/><path d="m392.682 195.53-3.833 3.833c-28.588 28.588-74.154 29.848-104.239 3.781-10.05-27.021-4.216-58.608 17.502-80.326l13.643-13.643c.321-.321.663-.609 1.021-.864l75.906 75.905c3.125 3.125 3.125 8.19 0 11.314z" fill="#e1ebf0"/><path d="m259.761 336.742-28.728-5.875-32.282-173.351c-2.222-11.931 1.579-24.191 10.161-32.773l9.312-9.312c.724-.724 1.963-.342 2.153.665l41.296 218.764c.212 1.128-.787 2.112-1.912 1.882z" fill="#1ab975"/><path d="m316.518 348.349-28.847-5.899c-1.354-.277-2.407-1.344-2.665-2.702l-45.995-241.756c-.335-1.76.223-3.571 1.49-4.838l22.703-22.703z" fill="#d63030"/><path d="m288.023 342.522-28.495-5.828-41.66-220.908 22.667-22.667z" fill="#e1ebf0"/><path d="m363.194 221.933-303.455-62.221c-1.405-.288-2.502-1.386-2.79-2.791l-5.884-28.769 339.416 69.578-22.88 22.88c-1.152 1.154-2.808 1.651-4.407 1.323z" fill="#1ed688"/><path d="m342.58 242.538-277.498-56.912c-1.432-.294-2.55-1.413-2.843-2.845l-5.345-26.134 310.922 63.751-20.814 20.814c-1.158 1.157-2.819 1.655-4.422 1.326z" fill="#fff5f5"/><path d="m339.57 248.643c-10.669 10.669-25.983 15.264-40.763 12.232l-230.258-47.238-6.357-31.085 285.017 58.453z" fill="#fb5858"/><path d="m465.137 246.206-11.297-6.037c-.912-.487-2.011-.471-2.907.044l-11.109 6.377c-2.21 1.268-4.894-.621-4.447-3.129l2.25-12.61c.182-1.018-.174-2.058-.94-2.751l-9.498-8.595c-1.889-1.709-.922-4.847 1.602-5.196l12.688-1.757c1.024-.142 1.903-.801 2.326-1.745l5.239-11.689c1.042-2.325 4.325-2.375 5.437-.083l5.591 11.524c.451.93 1.35 1.563 2.378 1.673l12.735 1.371c2.533.273 3.595 3.379 1.759 5.145l-9.232 8.879c-.745.717-1.069 1.767-.856 2.779l2.632 12.536c.523 2.495-2.104 4.465-4.351 3.264zm-390.65 48.216-2.632-12.536c-.212-1.012.111-2.062.856-2.779l9.232-8.879c1.836-1.766.775-4.872-1.759-5.145l-12.735-1.371c-1.028-.111-1.927-.743-2.378-1.673l-5.591-11.524c-1.112-2.292-4.395-2.242-5.437.083l-5.239 11.689c-.423.944-1.302 1.603-2.326 1.745l-12.688 1.757c-2.524.349-3.491 3.487-1.602 5.196l9.498 8.595c.767.694 1.122 1.734.94 2.751l-2.25 12.61c-.448 2.508 2.237 4.397 4.447 3.129l11.109-6.377c.897-.515 1.995-.531 2.907-.044l11.297 6.037c2.248 1.199 4.875-.771 4.351-3.264z" fill="#f29500"/><path d="m451.471 426.658-39.244-20.97c-1.597-.854-3.522-.824-5.092.077l-38.59 22.152c-3.87 2.221-8.572-1.087-7.789-5.48l7.817-43.804c.318-1.783-.304-3.604-1.647-4.819l-32.993-29.856c-3.309-2.994-1.615-8.489 2.805-9.101l44.075-6.102c1.794-.248 3.334-1.403 4.074-3.056l18.199-40.604c1.825-4.072 7.574-4.159 9.522-.145l19.423 40.033c.791 1.629 2.364 2.737 4.165 2.931l44.24 4.761c4.437.477 6.296 5.918 3.08 9.011l-32.071 30.844c-1.305 1.255-1.872 3.094-1.5 4.867l9.143 43.546c.919 4.368-3.681 7.818-7.617 5.715z" fill="#ffe7c0"/><path d="m483.518 341.688-32.071 30.843c-1.305 1.255-1.872 3.095-1.5 4.867l4.237 20.181c-35.235-8.478-63.581-34.645-75.116-68.581l1.745-.242c1.794-.248 3.333-1.403 4.074-3.056l18.199-40.604c1.825-4.072 7.574-4.159 9.522-.145l19.423 40.033c.791 1.629 2.365 2.737 4.165 2.93l44.24 4.761c4.439.478 6.298 5.92 3.082 9.013z" fill="#fff5f5"/><path d="m151.426 116.724c-4.142 0-7.5-3.358-7.5-7.5v-28c0-4.142 3.358-7.5 7.5-7.5 4.142 0 7.5 3.358 7.5 7.5v28c0 4.142-3.358 7.5-7.5 7.5zm-16.049-76.288-24.249-14c-3.587-2.071-8.174-.842-10.245 2.745-2.071 3.587-.842 8.174 2.745 10.245l24.249 14c3.587 2.071 8.174.842 10.245-2.745 2.071-3.587.842-8.174-2.745-10.245zm56.346-14-24.249 14c-3.587 2.071-4.816 6.658-2.745 10.245 2.071 3.587 6.658 4.816 10.245 2.745l24.249-14c3.587-2.071 4.816-6.658 2.745-10.245-2.071-3.587-6.658-4.816-10.245-2.745z" fill="#169b62"/><path d="m151.426 43c-4.142 0-7.5-3.358-7.5-7.5v-28c0-4.142 3.358-7.5 7.5-7.5 4.142 0 7.5 3.358 7.5 7.5v28c0 4.142-3.358 7.5-7.5 7.5zm47.797 34.298-24.249-14c-3.587-2.071-8.174-.842-10.245 2.745-2.071 3.587-.842 8.174 2.745 10.245l24.249 14c3.587 2.071 8.174.842 10.245-2.745 2.071-3.587.842-8.174-2.745-10.245zm-71.346-14-24.249 14c-3.587 2.071-4.816 6.658-2.745 10.245 2.071 3.587 6.658 4.816 10.245 2.745l24.249-14c3.587-2.071 4.816-6.658 2.745-10.245-2.071-3.587-6.658-4.816-10.245-2.745z" fill="#1ab975"/><path d="m324.79 455.044c-.025.043-.05.087-.075.13-2.058 3.541-6.596 4.75-10.142 2.702l-12.06-6.962c-1.8-1.04-3.006-2.712-3.5-4.574-.49-1.849-.278-3.884.754-5.671 1.126-1.95 2.995-3.203 5.044-3.608 1.719-.34 3.564-.082 5.202.863l12.06 6.963c3.555 2.052 4.768 6.6 2.717 10.157zm-61.876-17.121-12.06 6.963c-3.556 2.053-4.769 6.602-2.718 10.158.025.043.05.087.075.13 2.058 3.541 6.596 4.75 10.142 2.702l11.787-6.805c3.557-2.054 5.076-6.585 3.13-10.201-2.012-3.742-6.702-5.056-10.356-2.947zm23.626-49.148c-.026 0-.051 0-.077 0s-.051 0-.077 0c-4.121.007-7.423 3.431-7.423 7.552v13.484c0 4.106 3.164 7.688 7.269 7.811 4.247.127 7.731-3.278 7.731-7.497v-13.799c0-4.12-3.302-7.545-7.423-7.551z" fill="#f44545"/><path d="m324.716 410.394c.025.044.05.087.075.131 2.037 3.553.815 8.087-2.731 10.135l-12.059 6.963c-1.8 1.039-3.852 1.247-5.711.744-1.846-.5-3.503-1.702-4.534-3.489-1.126-1.95-1.276-4.196-.603-6.172.565-1.659 1.711-3.128 3.348-4.073l12.06-6.963c3.555-2.054 8.101-.831 10.155 2.724zm-45.765 45.025v13.926c0 4.106 3.333 7.431 7.438 7.432h.151c4.095-.012 7.411-3.337 7.411-7.432v-13.611c0-4.107-3.165-7.688-7.27-7.811-4.247-.128-7.729 3.278-7.73 7.496zm-30.751-45.034c-.013.022-.026.044-.038.066-.013.022-.026.044-.038.066-2.055 3.572-.74 8.144 2.829 10.205l11.678 6.742c3.556 2.053 8.24 1.103 10.399-2.39 2.234-3.615 1.027-8.334-2.627-10.443l-11.95-6.899c-3.57-2.061-8.186-.913-10.253 2.653z" fill="#d63030"/><path d="m370.411 285.706-12.439-6.803c-.336-.184-.612-.459-.795-.795l-6.803-12.439c-.759-1.387-2.751-1.387-3.509 0l-6.803 12.439c-.184.336-.459.611-.795.795l-12.439 6.803c-1.387.759-1.387 2.751 0 3.509l12.439 6.803c.336.184.611.459.795.795l6.803 12.439c.759 1.387 2.751 1.387 3.509 0l6.803-12.439c.184-.336.459-.611.795-.795l12.439-6.803c1.387-.758 1.387-2.751 0-3.509zm-7.621-251.051-10.896-5.959c-.294-.161-.536-.402-.696-.696l-5.959-10.896c-.665-1.215-2.41-1.215-3.074 0l-5.959 10.896c-.161.294-.402.536-.696.696l-10.896 5.959c-1.215.665-1.215 2.41 0 3.074l10.896 5.959c.294.161.536.402.696.696l5.959 10.896c.665 1.215 2.41 1.215 3.074 0l5.959-10.896c.161-.294.402-.536.696-.696l10.896-5.959c1.215-.665 1.215-2.41 0-3.074zm-206.058 390.387-10.896-5.959c-.294-.161-.536-.402-.696-.696l-5.959-10.896c-.665-1.215-2.41-1.215-3.074 0l-5.959 10.896c-.161.294-.402.536-.696.696l-10.896 5.959c-1.215.665-1.215 2.41 0 3.074l10.896 5.959c.294.161.536.402.696.696l5.959 10.896c.665 1.215 2.41 1.215 3.074 0l5.959-10.896c.161-.294.402-.536.696-.696l10.896-5.959c1.216-.664 1.215-2.41 0-3.074z" fill="#fff5f5"/></g></svg>