<?xml version="1.0"?><svg version="1.1" id="圖層_1" xmlns="http://www.w3.org/2000/svg" x="0" y="0" viewBox="0 0 100 100" xml:space="preserve"><path d="M50 19.074c-7.42 0-13.435 10.851-13.435 19.472 0 4.191 1.43 7.988 3.744 10.792 2.775 1.85 6.106 2.932 9.691 2.932s6.916-1.082 9.691-2.932c2.314-2.804 3.744-6.601 3.744-10.792 0-8.62-6.015-19.472-13.435-19.472z" fill="#c5c2ba"/><path d="M51.721 25.368c-.563-.133-1.137-.209-1.721-.209s-1.158.076-1.721.209c.565-.067 1.138-.111 1.721-.111s1.156.044 1.721.111z" fill="none"/><path d="M39.091 47.023l.067-.036a15.973 15.973 0 0 1-.77-1.434c.214.505.443.999.703 1.47z" fill="none"/><path d="M60.909 47.023c.26-.471.49-.965.704-1.47-.233.497-.493.973-.77 1.434l.066.036z" fill="none"/><path d="M59.035 46.117c-2.48 1.978-5.617 3.167-9.035 3.167s-6.555-1.189-9.035-3.167c-.418.177-.831.364-1.235.564-.194.096-.382.203-.572.306.396.66.826 1.291 1.304 1.871 2.731 1.821 6.009 2.886 9.537 2.886s6.806-1.065 9.537-2.886c.478-.579.908-1.211 1.304-1.871-.19-.103-.377-.21-.572-.306a22.23 22.23 0 0 0-1.233-.564z" fill="#96ab5f"/><path d="M59.035 46.117c-2.48 1.978-5.617 3.167-9.035 3.167s-6.555-1.189-9.035-3.167a14.55 14.55 0 0 1-3.678-4.349c.221 1.334.6 2.601 1.101 3.786.214.505.443.999.703 1.47l.067-.036c.396.66.826 1.291 1.304 1.871 2.731 1.821 6.009 2.886 9.537 2.886s6.806-1.065 9.537-2.886c.478-.579.908-1.211 1.304-1.871l.067.036c.26-.471.49-.965.704-1.47.501-1.184.88-2.451 1.101-3.785a14.552 14.552 0 0 1-3.677 4.348z" fill="none"/><path d="M51.721 25.368c-.563-.133-1.137-.209-1.721-.209s-1.158.076-1.721.209c-6.34 1.491-11.233 5.932-11.233 13.565 0 .971.088 1.916.24 2.835a14.578 14.578 0 0 0 3.678 4.349c2.48 1.978 5.617 3.167 9.035 3.167s6.555-1.189 9.035-3.167a14.55 14.55 0 0 0 3.678-4.349c.152-.919.24-1.864.24-2.835.002-7.633-4.891-12.074-11.231-13.565z" fill="#c0996d"/><path d="M66.109 50.828c-2.039-2.005-2.579-5.062-1.227-7.583a16.78 16.78 0 0 0 1.991-7.953c0-9.319-7.554-21.049-16.873-21.049S33.127 25.974 33.127 35.292c0 2.877.721 5.584 1.991 7.953 1.352 2.52.812 5.577-1.227 7.583-3.953 3.887-6.391 9.195-6.391 15.059v14.467c0 2.984 2.52 5.403 5.628 5.403h33.745c3.108 0 5.628-2.419 5.628-5.403V65.887c-.001-5.864-2.44-11.172-6.392-15.059zm-3.395-9.06a16.723 16.723 0 0 1-1.101 3.785c-.214.505-.443.999-.704 1.47l-.067-.036a15.36 15.36 0 0 1-1.304 1.871c-2.731 1.821-6.009 2.886-9.537 2.886s-6.806-1.065-9.537-2.886a15.284 15.284 0 0 1-1.304-1.871l-.067.036c-.26-.471-.49-.965-.703-1.47a16.665 16.665 0 0 1-1.101-3.786 17.341 17.341 0 0 1-.24-2.835c0-7.633 4.893-12.073 11.233-13.565.563-.133 1.137-.209 1.721-.209s1.158.076 1.721.209c6.34 1.491 11.233 5.932 11.233 13.565a17.68 17.68 0 0 1-.243 2.836z" fill="#573e31"/><path fill="none" stroke="#754c24" stroke-width="2" stroke-linecap="round" stroke-miterlimit="10" d="M46.707 56.243v10.375"/><circle cx="46.707" cy="66.618" r="2" fill="#c0996d"/><path fill="none" stroke="#754c24" stroke-width="2" stroke-linecap="round" stroke-miterlimit="10" d="M52.707 56.243v18.375"/><circle cx="52.707" cy="74.618" r="2" fill="#c0996d"/><metadata xmlns:d="https://loading.io/stock/">
<d:name>young man</d:name>
<d:tags>hacker,superpower,hoody,kid,teen,young man,people</d:tags>
<d:license>by</d:license>
<d:slug>x5tga6</d:slug>
</metadata></svg>